<?xml version="1.0" encoding="utf-8"?>
<svg width="208" height="208" viewBox="0 0 208 208" fill="none" xmlns="http://www.w3.org/2000/svg">
  <defs>
    <filter color-interpolation-filters="sRGB" x="-194" y="-194" width="196" height="196" id="filter_1">
      <feFlood flood-opacity="0" result="BackgroundImageFix_1" />
      <feColorMatrix type="matrix" values="0 0 0 0 0 0 0 0 0 0 0 0 0 0 0 0 0 0 1 0" in="SourceAlpha" />
      <feOffset dx="0" dy="4" />
      <feGaussianBlur stdDeviation="2" />
      <feColorMatrix type="matrix" values="0 0 0 0 0 0 0 0 0 0 0 0 0 0 0 0 0 0 0.251 0" />
      <feBlend mode="normal" in2="BackgroundImageFix_1" result="Shadow_2" />
      <feBlend mode="normal" in="SourceGraphic" in2="Shadow_2" result="Shape_3" />
    </filter>
  </defs>
  <g transform="translate(6 2)">
    <path d="M171 0C184.809 0 196 11.191 196 25L196 171C196 184.809 184.809 196 171 196L25 196C11.191 196 0 184.809 0 171L0 25C0 11.191 11.191 0 25 0L171 0Z" fill="#1A4FE9" filter="url(#filter_1)" />
    <path d="M94.35 75.8333L94.35 17.5L55.5 17.5C55.5 17.5 55.5 121.133 55.5 121.133C62.3797 117.305 68.5367 113.142 73.9711 108.646C87.557 97.4653 94.35 86.5278 94.35 75.8333C94.35 75.8333 94.35 75.8333 94.35 75.8333ZM111 5.83333C111 5.83333 111 75.8333 111 75.8333C111 81.059 110.032 86.2392 108.095 91.3737C106.158 96.5082 103.759 101.066 100.897 105.046C98.0356 109.026 94.6246 112.899 90.6645 116.667C86.7043 120.434 83.0477 123.563 79.6945 126.055C76.3414 128.546 72.8438 130.901 69.2016 133.118C65.5594 135.336 62.9723 136.84 61.4402 137.63C59.9082 138.42 58.6797 139.028 57.7547 139.453C57.0609 139.818 56.3094 140 55.5 140C54.6906 140 53.9391 139.818 53.2453 139.453C52.3203 139.028 51.0918 138.42 49.5598 137.63C48.0277 136.84 45.4406 135.336 41.7984 133.118C38.1563 130.901 34.6586 128.546 31.3055 126.055C27.9523 123.563 24.2957 120.434 20.3355 116.667C16.3754 112.899 12.9645 109.026 10.1027 105.046C7.24102 101.066 4.8418 96.5082 2.90508 91.3737C0.968361 86.2392 0 81.059 0 75.8333C0 75.8333 0 5.83333 0 5.83333C0 4.25347 0.549217 2.88628 1.64766 1.73177C2.74609 0.577257 4.04688 0 5.55 0C5.55 0 105.45 0 105.45 0C106.953 0 108.254 0.577257 109.352 1.73177C110.451 2.88628 111 4.25347 111 5.83333C111 5.83333 111 5.83333 111 5.83333Z" fill="#FFFFFF" transform="translate(43 28)" />
  </g>
</svg>